<mxfile host="app.diagrams.net" modified="2024-03-26T14:31:18.596Z" agent="Mozilla/5.0 (Windows NT 10.0; Win64; x64) AppleWebKit/537.36 (KHTML, like Gecko) Chrome/122.0.0.0 Safari/537.36 Edg/122.0.0.0" etag="1StDGLA7G4xbPFFOipH1" version="24.0.2" type="device">
  <diagram name="Trang-1" id="MJt6AZvownJq4jupAgKA">
    <mxGraphModel dx="1226" dy="629" grid="1" gridSize="10" guides="1" tooltips="1" connect="1" arrows="1" fold="1" page="1" pageScale="1" pageWidth="827" pageHeight="1169" math="0" shadow="0">
      <root>
        <mxCell id="0" />
        <mxCell id="1" parent="0" />
        <mxCell id="Lsp_a4wNLQNmTzt4u1o9-22" value="" style="rounded=0;whiteSpace=wrap;html=1;fontSize=15;" parent="1" vertex="1">
          <mxGeometry x="400" y="350" width="247" height="140" as="geometry" />
        </mxCell>
        <mxCell id="Lsp_a4wNLQNmTzt4u1o9-29" value="" style="rounded=0;whiteSpace=wrap;html=1;" parent="1" vertex="1">
          <mxGeometry x="10" y="40" width="250" height="230" as="geometry" />
        </mxCell>
        <mxCell id="Lsp_a4wNLQNmTzt4u1o9-1" value="" style="rounded=0;whiteSpace=wrap;html=1;fontSize=15;" parent="1" vertex="1">
          <mxGeometry x="130" y="100" width="60" height="25" as="geometry" />
        </mxCell>
        <mxCell id="Lsp_a4wNLQNmTzt4u1o9-2" value="Ký hiệu:" style="text;html=1;strokeColor=none;fillColor=none;align=center;verticalAlign=middle;whiteSpace=wrap;rounded=0;fontSize=15;" parent="1" vertex="1">
          <mxGeometry x="50" y="53" width="60" height="30" as="geometry" />
        </mxCell>
        <mxCell id="Lsp_a4wNLQNmTzt4u1o9-3" value="Service:" style="text;html=1;align=center;verticalAlign=middle;resizable=0;points=[];autosize=1;strokeColor=none;fillColor=none;fontSize=15;" parent="1" vertex="1">
          <mxGeometry x="50" y="100" width="80" height="30" as="geometry" />
        </mxCell>
        <mxCell id="Lsp_a4wNLQNmTzt4u1o9-4" value="Database:" style="text;html=1;align=center;verticalAlign=middle;resizable=0;points=[];autosize=1;strokeColor=none;fillColor=none;fontSize=15;" parent="1" vertex="1">
          <mxGeometry x="50" y="140" width="90" height="30" as="geometry" />
        </mxCell>
        <mxCell id="Lsp_a4wNLQNmTzt4u1o9-5" value="" style="shape=cylinder3;whiteSpace=wrap;html=1;boundedLbl=1;backgroundOutline=1;size=15;fontSize=15;" parent="1" vertex="1">
          <mxGeometry x="141.25" y="130" width="37.5" height="50" as="geometry" />
        </mxCell>
        <mxCell id="Lsp_a4wNLQNmTzt4u1o9-6" value="" style="ellipse;whiteSpace=wrap;html=1;fontSize=15;" parent="1" vertex="1">
          <mxGeometry x="141.25" y="195" width="70" height="40" as="geometry" />
        </mxCell>
        <mxCell id="Lsp_a4wNLQNmTzt4u1o9-7" value="Chức năng:" style="text;html=1;align=center;verticalAlign=middle;resizable=0;points=[];autosize=1;strokeColor=none;fillColor=none;fontSize=15;" parent="1" vertex="1">
          <mxGeometry x="41.25" y="200" width="100" height="30" as="geometry" />
        </mxCell>
        <mxCell id="Lsp_a4wNLQNmTzt4u1o9-8" value="" style="rounded=0;whiteSpace=wrap;html=1;fontSize=15;" parent="1" vertex="1">
          <mxGeometry x="380" y="100" width="200" height="150" as="geometry" />
        </mxCell>
        <mxCell id="Lsp_a4wNLQNmTzt4u1o9-9" value="JWT Service" style="text;html=1;align=center;verticalAlign=middle;resizable=0;points=[];autosize=1;strokeColor=none;fillColor=none;fontSize=15;" parent="1" vertex="1">
          <mxGeometry x="350" y="70" width="110" height="30" as="geometry" />
        </mxCell>
        <mxCell id="Lsp_a4wNLQNmTzt4u1o9-10" value="login" style="ellipse;whiteSpace=wrap;html=1;fontSize=15;" parent="1" vertex="1">
          <mxGeometry x="413" y="110" width="80" height="45" as="geometry" />
        </mxCell>
        <mxCell id="Lsp_a4wNLQNmTzt4u1o9-11" value="register" style="ellipse;whiteSpace=wrap;html=1;fontSize=15;" parent="1" vertex="1">
          <mxGeometry x="485" y="145" width="80" height="50" as="geometry" />
        </mxCell>
        <mxCell id="Lsp_a4wNLQNmTzt4u1o9-16" value="H2 Database" style="shape=cylinder3;whiteSpace=wrap;html=1;boundedLbl=1;backgroundOutline=1;size=15;fontSize=15;" parent="1" vertex="1">
          <mxGeometry x="690" y="110" width="270" height="390" as="geometry" />
        </mxCell>
        <mxCell id="Lsp_a4wNLQNmTzt4u1o9-12" value="User" style="swimlane;fontStyle=0;childLayout=stackLayout;horizontal=1;startSize=26;fillColor=none;horizontalStack=0;resizeParent=1;resizeParentMax=0;resizeLast=0;collapsible=1;marginBottom=0;whiteSpace=wrap;html=1;fontSize=15;" parent="1" vertex="1">
          <mxGeometry x="740" y="180" width="140" height="78" as="geometry" />
        </mxCell>
        <mxCell id="Lsp_a4wNLQNmTzt4u1o9-13" value="- id: long" style="text;strokeColor=none;fillColor=none;align=left;verticalAlign=top;spacingLeft=4;spacingRight=4;overflow=hidden;rotatable=0;points=[[0,0.5],[1,0.5]];portConstraint=eastwest;whiteSpace=wrap;html=1;fontSize=15;" parent="Lsp_a4wNLQNmTzt4u1o9-12" vertex="1">
          <mxGeometry y="26" width="140" height="26" as="geometry" />
        </mxCell>
        <mxCell id="Lsp_a4wNLQNmTzt4u1o9-14" value="- name: string" style="text;strokeColor=none;fillColor=none;align=left;verticalAlign=top;spacingLeft=4;spacingRight=4;overflow=hidden;rotatable=0;points=[[0,0.5],[1,0.5]];portConstraint=eastwest;whiteSpace=wrap;html=1;fontSize=15;" parent="Lsp_a4wNLQNmTzt4u1o9-12" vertex="1">
          <mxGeometry y="52" width="140" height="26" as="geometry" />
        </mxCell>
        <mxCell id="Lsp_a4wNLQNmTzt4u1o9-17" style="edgeStyle=orthogonalEdgeStyle;rounded=0;orthogonalLoop=1;jettySize=auto;html=1;fontSize=15;" parent="1" source="Lsp_a4wNLQNmTzt4u1o9-8" target="Lsp_a4wNLQNmTzt4u1o9-12" edge="1">
          <mxGeometry relative="1" as="geometry" />
        </mxCell>
        <mxCell id="QdmU4sj03T_hrc-AFMr3-2" style="edgeStyle=orthogonalEdgeStyle;rounded=0;orthogonalLoop=1;jettySize=auto;html=1;" edge="1" parent="1" source="Lsp_a4wNLQNmTzt4u1o9-24" target="QdmU4sj03T_hrc-AFMr3-1">
          <mxGeometry relative="1" as="geometry">
            <Array as="points">
              <mxPoint x="490" y="280" />
              <mxPoint x="450" y="280" />
            </Array>
          </mxGeometry>
        </mxCell>
        <mxCell id="Lsp_a4wNLQNmTzt4u1o9-23" value="Redis Service" style="text;html=1;align=center;verticalAlign=middle;resizable=0;points=[];autosize=1;strokeColor=none;fillColor=none;fontSize=15;" parent="1" vertex="1">
          <mxGeometry x="350" y="320" width="120" height="30" as="geometry" />
        </mxCell>
        <mxCell id="Lsp_a4wNLQNmTzt4u1o9-24" value="getAll" style="ellipse;whiteSpace=wrap;html=1;fontSize=15;" parent="1" vertex="1">
          <mxGeometry x="440" y="380" width="90" height="55" as="geometry" />
        </mxCell>
        <mxCell id="Lsp_a4wNLQNmTzt4u1o9-28" style="edgeStyle=orthogonalEdgeStyle;rounded=0;orthogonalLoop=1;jettySize=auto;html=1;fontSize=15;" parent="1" source="Lsp_a4wNLQNmTzt4u1o9-27" target="Lsp_a4wNLQNmTzt4u1o9-22" edge="1">
          <mxGeometry relative="1" as="geometry" />
        </mxCell>
        <mxCell id="Lsp_a4wNLQNmTzt4u1o9-27" value="Nếu có hàng tỉ orders, việc lấy danh sách order từ DB là rất tốn thời gian. Khi lưu các orders, lưu 1 bản ghi ở redis, khi lấy dánh sách các orders, thay vì lấy từ DB, ta lấy từ redis sẽ nhanh hơn rất nhiều, tăng tốc độ cho hệ thống." style="shape=note;whiteSpace=wrap;html=1;backgroundOutline=1;darkOpacity=0.05;fontSize=18;align=left;spacing=10;" parent="1" vertex="1">
          <mxGeometry x="40" y="370" width="280" height="240" as="geometry" />
        </mxCell>
        <mxCell id="Lsp_a4wNLQNmTzt4u1o9-32" value="Order" style="swimlane;fontStyle=0;childLayout=stackLayout;horizontal=1;startSize=26;fillColor=none;horizontalStack=0;resizeParent=1;resizeParentMax=0;resizeLast=0;collapsible=1;marginBottom=0;whiteSpace=wrap;html=1;" parent="1" vertex="1">
          <mxGeometry x="740" y="350" width="140" height="78" as="geometry" />
        </mxCell>
        <mxCell id="Lsp_a4wNLQNmTzt4u1o9-33" value="- id: long" style="text;strokeColor=none;fillColor=none;align=left;verticalAlign=top;spacingLeft=4;spacingRight=4;overflow=hidden;rotatable=0;points=[[0,0.5],[1,0.5]];portConstraint=eastwest;whiteSpace=wrap;html=1;" parent="Lsp_a4wNLQNmTzt4u1o9-32" vertex="1">
          <mxGeometry y="26" width="140" height="26" as="geometry" />
        </mxCell>
        <mxCell id="Lsp_a4wNLQNmTzt4u1o9-36" value="- totalPrice: double" style="text;strokeColor=none;fillColor=none;align=left;verticalAlign=top;spacingLeft=4;spacingRight=4;overflow=hidden;rotatable=0;points=[[0,0.5],[1,0.5]];portConstraint=eastwest;whiteSpace=wrap;html=1;" parent="Lsp_a4wNLQNmTzt4u1o9-32" vertex="1">
          <mxGeometry y="52" width="140" height="26" as="geometry" />
        </mxCell>
        <mxCell id="QdmU4sj03T_hrc-AFMr3-1" value="checkToken" style="ellipse;whiteSpace=wrap;html=1;fontStyle=0;fontSize=15;" vertex="1" parent="1">
          <mxGeometry x="400" y="170" width="95" height="60" as="geometry" />
        </mxCell>
        <mxCell id="QdmU4sj03T_hrc-AFMr3-7" style="edgeStyle=orthogonalEdgeStyle;rounded=0;orthogonalLoop=1;jettySize=auto;html=1;" edge="1" parent="1" source="QdmU4sj03T_hrc-AFMr3-4" target="QdmU4sj03T_hrc-AFMr3-5">
          <mxGeometry relative="1" as="geometry">
            <Array as="points">
              <mxPoint x="585" y="487" />
              <mxPoint x="550" y="487" />
            </Array>
          </mxGeometry>
        </mxCell>
        <mxCell id="QdmU4sj03T_hrc-AFMr3-8" style="edgeStyle=orthogonalEdgeStyle;rounded=0;orthogonalLoop=1;jettySize=auto;html=1;" edge="1" parent="1" source="QdmU4sj03T_hrc-AFMr3-4" target="Lsp_a4wNLQNmTzt4u1o9-32">
          <mxGeometry relative="1" as="geometry" />
        </mxCell>
        <mxCell id="QdmU4sj03T_hrc-AFMr3-4" value="saveOrder" style="ellipse;whiteSpace=wrap;html=1;fontSize=15;" vertex="1" parent="1">
          <mxGeometry x="540" y="392.5" width="90" height="55" as="geometry" />
        </mxCell>
        <mxCell id="QdmU4sj03T_hrc-AFMr3-5" value="Redis" style="shape=cylinder3;whiteSpace=wrap;html=1;boundedLbl=1;backgroundOutline=1;size=15;fontSize=15;" vertex="1" parent="1">
          <mxGeometry x="485" y="527" width="82.25" height="115" as="geometry" />
        </mxCell>
        <mxCell id="QdmU4sj03T_hrc-AFMr3-6" style="edgeStyle=orthogonalEdgeStyle;rounded=0;orthogonalLoop=1;jettySize=auto;html=1;" edge="1" parent="1" source="Lsp_a4wNLQNmTzt4u1o9-24" target="QdmU4sj03T_hrc-AFMr3-5">
          <mxGeometry relative="1" as="geometry">
            <Array as="points">
              <mxPoint x="485" y="481" />
              <mxPoint x="500" y="481" />
            </Array>
          </mxGeometry>
        </mxCell>
      </root>
    </mxGraphModel>
  </diagram>
</mxfile>
